<svg xmlns="http://www.w3.org/2000/svg" version="1.1" xmlns:xlink="http://www.w3.org/1999/xlink" xmlns:svgjs="http://svgjs.dev/svgjs" width="2000" height="1080" viewBox="0 0 2000 1080"><g transform="matrix(1,0,0,1,-1.2121212121212466,1.1632902345086222)"><svg viewBox="0 0 396 214" data-background-color="#0a192f" preserveAspectRatio="xMidYMid meet" height="1080" width="2000" xmlns="http://www.w3.org/2000/svg" xmlns:xlink="http://www.w3.org/1999/xlink"><g id="tight-bounds" transform="matrix(1,0,0,1,0.2400000000000091,-0.23050380572669837)"><svg viewBox="0 0 395.52 214.4610076114534" height="214.4610076114534" width="395.52"><g><svg viewBox="0 0 395.52 214.4610076114534" height="214.4610076114534" width="395.52"><g><svg viewBox="0 0 395.52 214.4610076114534" height="214.4610076114534" width="395.52"><g id="textblocktransform"><svg viewBox="0 0 395.52 214.4610076114534" height="214.4610076114534" width="395.52" id="textblock"><g><svg viewBox="0 0 395.52 214.4610076114534" height="214.4610076114534" width="395.52"><g transform="matrix(1,0,0,1,0,0)"><svg width="395.52" viewBox="4.13 -36.04 67.35000000000001 36.53" height="214.4610076114534" data-palette-color="#d0ddff"><path d="M5.62-35.55L10.23-35.55 21.83-6.49 33.42-35.55 38.04-35.55 23.61 0 20.02 0 5.62-35.55ZM4.13-35.55L8.18-35.55 8.84-13.89 8.84 0 4.13 0 4.13-35.55ZM35.47-35.55L39.53-35.55 39.53 0 34.81 0 34.81-13.89 35.47-35.55ZM66.72-8.98L66.72-8.98Q66.72-10.67 66.01-11.84 65.31-13.01 63.47-13.96 61.64-14.92 58.27-15.89L58.27-15.89Q55.64-16.65 53.53-17.61 51.41-18.58 49.9-19.82 48.39-21.07 47.58-22.68 46.77-24.29 46.77-26.37L46.77-26.37Q46.77-29.15 48.28-31.34 49.78-33.52 52.49-34.78 55.2-36.04 58.84-36.04L58.84-36.04Q62.86-36.04 65.67-34.51 68.48-32.98 69.94-30.53 71.41-28.08 71.41-25.29L71.41-25.29 66.65-25.29Q66.65-27.29 65.81-28.86 64.96-30.42 63.23-31.31 61.5-32.2 58.84-32.2L58.84-32.2Q56.35-32.2 54.72-31.45 53.1-30.69 52.32-29.39 51.54-28.1 51.54-26.44L51.54-26.44Q51.54-24.95 52.39-23.79 53.24-22.63 55.08-21.7 56.91-20.78 59.81-19.95L59.81-19.95Q63.84-18.82 66.43-17.33 69.02-15.84 70.25-13.82 71.48-11.79 71.48-9.03L71.48-9.03Q71.48-6.15 69.94-4 68.41-1.86 65.62-0.68 62.84 0.49 59.08 0.49L59.08 0.49Q56.61 0.49 54.23-0.2 51.85-0.88 49.91-2.25 47.97-3.61 46.81-5.63 45.65-7.64 45.65-10.3L45.65-10.3 50.39-10.3Q50.39-8.47 51.1-7.15 51.8-5.83 53.02-4.98 54.25-4.13 55.81-3.72 57.37-3.32 59.08-3.32L59.08-3.32Q61.55-3.32 63.24-4.02 64.94-4.71 65.83-5.98 66.72-7.25 66.72-8.98Z" opacity="1" transform="matrix(1,0,0,1,0,0)" fill="#d0ddff" class="wordmark-text-0" data-fill-palette-color="primary" id="text-0"></path></svg></g></svg></g></svg></g></svg></g></svg></g><defs></defs></svg><rect width="395.52" height="214.4610076114534" fill="none" stroke="none" visibility="hidden"></rect></g></svg></g></svg>